:SAMPLES-PER-SECOND 30
:FULLY-SPECIFIED
:DEGREES
358
root  -3.55712 40.921 -0.879614 -0.294993 -76.7314 -0.88737
RightUpLeg  7.6203 -2.47941 0.324433
RightLeg  -4.62176 -29.2001 4.00458
RightFoot  -1.65857 -0.3118 3.54623
RightToes  -3.13006e-008 1.75238e-005 3.56266e-009
Spine  0.785688 0.624339 0.0829604
Spine1  1.13993 1.98958 -6.57094
HEad  -1.77234 -6.63987 4.45282
LeftShoulder1  0.56304 -1.10283 -4.2825
LeftArm  -76.054 -59.7193 -14.9609
LeftForeArm  130.579 -77.7701 -126.467
LeftHand  -1.07322 -1.91387 17.1759
RightShoulder  0.446497 0.337069 3.64764
RightArm  -80.3335 39.4248 8.26115
RightForeArm  132.081 69.6252 148.84
RightHand  -2.05418 9.42242 -16.3387
LeftUpLeg  1.85352 2.17173 4.48021
LeftLeg  1.06661 -0.500333 -0.275413
LeftFoot  -1.35514 0.476452 -5.35735
LeftToes  4.78685e-008 1.46778e-008 1.34523e-009
359
root  -3.61795 40.9165 -0.561027 -0.938141 -77.1574 -0.601188
RightUpLeg  7.98191 -2.6691 -0.157512
RightLeg  -4.1472 -28.6847 3.50045
RightFoot  -1.75645 -0.327386 3.75936
RightToes  -3.13006e-008 1.75238e-005 3.56266e-009
Spine  -0.496864 0.0717657 -0.641965
Spine1  2.74693 1.06142 -4.20529
HEad  -0.859708 -6.33072 4.91162
LeftShoulder1  0.567305 -1.05142 -4.52984
LeftArm  -72.1223 -59.494 -18.061
LeftForeArm  136.998 -76.9077 -131.759
LeftHand  -1.11453 -2.12801 17.3309
RightShoulder  0.460668 0.200756 4.55196
RightArm  -79.7589 38.7533 9.87344
RightForeArm  133.679 68.1368 151.238
RightHand  -2.16887 9.16151 -17.5267
LeftUpLeg  2.47194 2.22063 4.0649
LeftLeg  1.23675 -0.122764 -0.535992
LeftFoot  -1.68627 0.394365 -4.55091
LeftToes  4.78685e-008 1.46778e-008 1.34523e-009
360
root  -3.66365 40.9061 -0.259089 -2.04885 -77.8437 -0.20073
RightUpLeg  8.43214 -2.84468 -0.655125
RightLeg  -3.12592 -27.9282 2.65368
RightFoot  -1.93865 -0.356605 4.17317
RightToes  -3.13006e-008 1.75238e-005 3.56266e-009
Spine  -1.84947 -0.313775 -1.48082
Spine1  5.0016 0.23374 -1.71477
HEad  -0.17989 -5.90268 5.29943
LeftShoulder1  0.686755 -1.62255 -5.61271
LeftArm  -65.2905 -57.7555 -23.4201
LeftForeArm  146.169 -75.1517 -139.544
LeftHand  -1.04749 -1.6949 17.2466
RightShoulder  0.54596 0.56276 5.68201
RightArm  -77.0389 37.3383 13.0645
RightForeArm  136.709 65.9253 154.36
RightHand  -2.16599 8.73402 -18.0132
LeftUpLeg  3.44836 2.1138 3.52713
LeftLeg  1.44828 0.660974 -0.559918
LeftFoot  -2.06558 0.337769 -4.00899
LeftToes  4.78685e-008 1.46778e-008 1.34523e-009
361
root  -3.70906 40.8744 0.0156505 -2.92454 -78.3238 -0.252363
RightUpLeg  9.01878 -3.28676 -1.22291
RightLeg  -1.85906 -27.0807 2.02889
RightFoot  -2.44259 -0.383805 4.7165
RightToes  -3.13006e-008 1.75238e-005 3.56266e-009
Spine  -3.28592 -0.891927 -2.26378
Spine1  7.86207 -0.856824 0.659698
HEad  0.216972 -4.65585 5.45823
LeftShoulder1  0.829342 -2.07463 -7.24662
LeftArm  -57.2994 -54.0776 -29.4203
LeftForeArm  154.785 -73.0769 -145.987
LeftHand  -1.27269 -2.61856 18.583
RightShoulder  0.665333 0.922297 7.52445
RightArm  -71.3154 35.7047 17.3848
RightForeArm  140.057 63.4639 157.234
RightHand  -2.27204 9.99306 -17.3651
LeftUpLeg  4.31823 2.19789 3.19138
LeftLeg  2.26124 1.07071 -0.613252
LeftFoot  -2.79212 0.27849 -3.50091
LeftToes  4.78685e-008 1.46778e-008 1.34523e-009
362
root  -3.73766 40.821 0.256224 -4.32652 -79.1336 0.218208
RightUpLeg  9.25277 -3.79568 -1.93233
RightLeg  0.112923 -25.6333 1.14755
RightFoot  -3.33022 -0.391903 5.26812
RightToes  -3.13006e-008 1.75238e-005 3.56266e-009
Spine  -4.34321 -1.31566 -3.26409
Spine1  10.5025 -1.89505 3.03751
HEad  1.35311 -4.40254 5.07197
LeftShoulder1  1.07724 -2.91188 -9.40512
LeftArm  -49.3399 -48.5902 -34.8451
LeftForeArm  161.372 -70.4613 -151.576
LeftHand  -1.43286 -3.4945 18.8382
RightShoulder  0.883099 1.59618 9.98338
RightArm  -63.776 33.1679 21.1431
RightForeArm  143.271 60.9752 159.665
RightHand  -2.3348 10.0267 -17.8016
LeftUpLeg  5.10266 2.22851 2.76141
LeftLeg  3.28983 1.87945 -0.597644
LeftFoot  -3.66389 0.228659 -3.08064
LeftToes  4.78685e-008 1.46778e-008 1.34523e-009
363
root  -3.77795 40.7421 0.45516 -6.2867 -80.39 0.911828
RightUpLeg  9.64903 -4.0875 -2.48995
RightLeg  2.3546 -23.9066 0.00135295
RightFoot  -4.43311 -0.381799 5.82305
RightToes  -3.13006e-008 1.75238e-005 3.56266e-009
Spine  -5.64795 -1.55112 -3.8548
Spine1  14.2779 -2.69443 4.61572
HEad  1.62784 -4.03955 4.45822
LeftShoulder1  1.38173 -3.74767 -11.9308
LeftArm  -42.7692 -42.5223 -37.5614
LeftForeArm  165.069 -68.1561 -155.115
LeftHand  -1.51896 -3.53046 19.8734
RightShoulder  1.30922 3.0476 13.0444
RightArm  -56.518 30.0697 23.0447
RightForeArm  147.619 59.1397 161.396
RightHand  -2.42543 9.80099 -18.7075
LeftUpLeg  6.21655 2.49554 2.48041
LeftLeg  4.56376 2.85488 -0.604143
LeftFoot  -4.86286 0.190877 -2.85753
LeftToes  4.78685e-008 1.46778e-008 1.34523e-009
364
root  -3.75952 40.631 0.619805 -7.37527 -81.7685 0.806649
RightUpLeg  9.51972 -4.2287 -2.80428
RightLeg  5.18707 -22.1932 -1.29189
RightFoot  -5.6264 -0.358746 6.40664
RightToes  -3.13006e-008 1.75238e-005 3.56266e-009
Spine  -6.92093 -1.74805 -3.93095
Spine1  18.7992 -3.43446 5.59144
HEad  -0.0448297 -3.28678 3.98934
LeftShoulder1  1.63413 -4.12687 -14.5509
LeftArm  -37.681 -37.5561 -37.8935
LeftForeArm  167.939 -66.2429 -157.56
LeftHand  -1.46246 -3.06179 20.1596
RightShoulder  1.61943 3.76922 15.5732
RightArm  -49.0125 28.2079 25.5313
RightForeArm  154.567 58.3206 162.532
RightHand  -2.78715 10.5527 -20.439
LeftUpLeg  6.67427 2.99866 2.37217
LeftLeg  6.79399 3.72324 -0.379099
LeftFoot  -6.37823 0.155194 -2.69409
LeftToes  4.78685e-008 1.46778e-008 1.34523e-009
365
root  -3.70158 40.4809 0.742129 -7.55804 -83.2016 -0.264191
RightUpLeg  9.17941 -4.51628 -2.9569
RightLeg  8.29616 -20.3118 -2.52342
RightFoot  -6.94064 -0.306184 6.7359
RightToes  -3.13006e-008 1.75238e-005 3.56266e-009
Spine  -6.88303 -1.72245 -3.19416
Spine1  21.9048 -3.64806 5.46139
HEad  -1.94956 -3.6066 4.35199
LeftShoulder1  1.70922 -4.19336 -15.4015
LeftArm  -32.0453 -32.7533 -39.1212
LeftForeArm  171.386 -65.369 -158.773
LeftHand  -1.60514 -3.18294 21.7767
RightShoulder  1.86811 4.26151 17.4762
RightArm  -42.0576 25.8755 28.635
RightForeArm  162.312 57.9768 163.411
RightHand  -3.061 11.5425 -21.1071
LeftUpLeg  6.81993 4.15999 2.60451
LeftLeg  9.599 3.91273 -0.0963266
LeftFoot  -7.99047 0.122126 -2.53771
LeftToes  4.78685e-008 1.46778e-008 1.34523e-009
366
root  -3.65297 40.3126 0.807293 -9.12948 -84.9294 0.172119
RightUpLeg  8.47952 -4.78581 -3.05279
RightLeg  11.6792 -18.2444 -3.88675
RightFoot  -8.24084 -0.248108 7.07877
RightToes  -3.13006e-008 1.75238e-005 3.56266e-009
Spine  -6.38533 -1.57374 -3.32404
Spine1  24.2192 -3.94078 6.12145
HEad  -3.62522 -2.63163 4.04274
LeftShoulder1  1.81478 -4.37725 -16.2991
LeftArm  -27.0688 -28.2692 -39.8008
LeftForeArm  174.734 -64.7519 -159.682
LeftHand  -1.6962 -3.54528 22.0831
RightShoulder  2.28603 5.61514 18.6023
RightArm  -36.1339 23.486 31.4319
RightForeArm  167.503 58.0109 163.838
RightHand  -3.23719 12.3379 -21.3136
LeftUpLeg  7.04058 5.8469 2.9371
LeftLeg  12.1267 3.8543 0.159617
LeftFoot  -9.43989 0.0987281 -2.55931
LeftToes  4.78685e-008 1.46778e-008 1.34523e-009
367
root  -3.60254 40.1123 0.807084 -14.3387 -86.726 4.58079
RightUpLeg  7.02091 -4.82643 -3.22849
RightLeg  15.7438 -16.2598 -5.20556
RightFoot  -9.59896 -0.173054 7.05874
RightToes  -3.13006e-008 1.75238e-005 3.56266e-009
Spine  -4.94993 -1.13057 -4.05862
Spine1  24.5807 -3.85847 6.92646
HEad  -3.75959 -2.40659 4.20251
LeftShoulder1  1.89622 -4.72293 -16.3243
LeftArm  -21.8358 -23.9392 -40.9605
LeftForeArm  177.913 -64.551 -160.187
LeftHand  -1.82745 -4.51822 21.4727
RightShoulder  2.49175 6.17528 19.3155
RightArm  -29.0529 21.4294 34.5501
RightForeArm  166.895 58.7848 163.311
RightHand  -2.874 10.7968 -20.7377
LeftUpLeg  6.88147 8.01845 3.20183
LeftLeg  14.7468 3.34852 0.466013
LeftFoot  -10.9382 0.0753909 -2.70362
LeftToes  4.78685e-008 1.46778e-008 1.34523e-009
